<svg width="3729" height="2539" xmlns="http://www.w3.org/2000/svg" xmlns:xlink="http://www.w3.org/1999/xlink" overflow="hidden"><defs><clipPath id="clip0"><rect x="46" y="-63" width="3729" height="2539"/></clipPath></defs><g clip-path="url(#clip0)" transform="translate(-46 63)"><path d="M141 491.125 1309.33 491.125 1309.33 504.875 141 504.875ZM1271.54 467.999 1322.97 498 1271.54 528.001C1268.26 529.915 1264.05 528.807 1262.14 525.527 1260.22 522.247 1261.33 518.038 1264.61 516.124L1305.86 492.062 1305.86 503.939 1264.61 479.876C1261.33 477.963 1260.22 473.754 1262.14 470.474 1264.05 467.194 1268.26 466.086 1271.54 467.999Z"/><path d="M6.875-2.6386e-06 6.87536 926.709-6.87464 926.709-6.875 2.6386e-06ZM30.0013 888.924 0.000358963 940.355-30.0006 888.924C-31.9138 885.645-30.806 881.435-27.5263 879.522-24.2465 877.609-20.0369 878.716-18.1237 881.996L5.93884 923.246-5.93813 923.246 18.1244 881.996C20.0375 878.716 24.2472 877.609 27.527 879.522 30.8067 881.435 31.9145 885.645 30.0013 888.924Z" transform="matrix(1 0 0 -1 699 940.323)"/><path d="M933.525 266.54C902.175 284.87 822.912 336.313 773.817 362.33 724.721 388.347 671.485 420.869 638.952 422.643 606.419 424.416 592.815 385.391 578.619 372.973 564.422 360.556 569.154 341.634 553.775 348.139 538.396 354.643 501.131 385.982 486.343 411.999 471.555 438.016 463.274 475.859 465.049 504.242 466.823 532.624 494.624 561.006 496.99 582.293 499.356 603.579 490.483 623.684 479.245 631.962 468.006 640.24 429.558 631.962 429.558 631.962 412.404 631.962 394.067 628.414 376.322 631.962 358.577 635.51 335.508 643.196 323.086 653.248 310.664 663.3 307.707 679.857 301.792 692.274 295.877 704.691 298.243 718.292 287.595 727.752 276.948 737.213 252.696 741.943 237.908 749.039 223.12 756.134 207.15 759.682 198.869 770.326 190.587 780.969 187.039 798.708 188.222 812.899 189.405 827.09 188.222 849.559 205.967 855.472 223.712 861.385 265.118 856.064 294.693 848.377 324.269 840.69 354.436 823.542 383.42 809.351 412.404 795.16 444.937 778.012 468.598 763.23 492.258 748.447 510.595 731.3 525.382 720.656 540.17 710.013 546.677 702.918 557.324 699.37 567.972 695.822 573.887 701.144 589.266 699.37 604.645 697.596 628.306 691.092 649.6 688.726 670.894 686.361 698.103 683.996 717.032 685.179 735.96 686.362 741.284 696.414 763.17 695.822 785.055 695.231 828.827 689.909 848.347 681.631 867.867 673.353 873.191 658.57 880.289 646.153 887.387 633.736 891.528 620.136 890.936 607.127 890.344 594.119 877.332 581.11 876.74 568.102 876.148 555.093 879.698 538.537 887.387 529.076 895.077 519.615 917.554 523.754 922.878 511.337 928.201 498.92 922.286 467.581 919.329 454.573 916.371 441.564 902.175 444.521 905.132 433.286 908.09 422.051 924.061 398.99 937.074 387.165 950.087 375.339 966.058 372.973 983.212 362.33 1000.37 351.687 1023.43 333.948 1040 323.304 1056.56 312.661 1072.53 309.113 1082.59 298.47 1092.64 287.827 1103.88 270.679 1100.33 259.444 1096.78 248.21 1084.36 232.245 1061.29 231.062 1038.22 229.88 984.986 245.844 961.917 252.349 938.848 258.853 964.875 248.209 933.525 266.54Z" stroke="#000000" stroke-width="13.75" stroke-miterlimit="8" fill="none" fill-rule="evenodd"/><path d="M1994 564.125 3126.52 564.125 3126.52 577.875 1994 577.875ZM3088.73 540.999 3140.16 571 3088.73 601.001C3085.45 602.914 3081.24 601.807 3079.33 598.527 3077.42 595.247 3078.52 591.037 3081.8 589.124L3123.05 565.062 3123.05 576.939 3081.8 552.876C3078.52 550.963 3077.42 546.753 3079.33 543.474 3081.24 540.194 3085.45 539.086 3088.73 540.999Z"/><path d="M6.875-2.46207e-06 6.87536 994.128-6.87464 994.128-6.875 2.46207e-06ZM30.0013 956.343 0.000359313 1007.77-30.0006 956.343C-31.9138 953.064-30.806 948.854-27.5263 946.941-24.2465 945.028-20.0369 946.135-18.1237 949.415L5.93884 990.665-5.93813 990.665 18.1244 949.415C20.0375 946.135 24.2472 945.028 27.527 946.941 30.8067 948.854 31.9145 953.064 30.0013 956.343Z" transform="matrix(1 0 0 -1 2495 1007.74)"/><path d="M2348.7 482.932C2344.56 500.671 2341.6 532.602 2341.6 557.437 2341.6 582.273 2351.07 610.064 2348.7 631.943 2346.33 653.821 2339.82 670.969 2327.4 688.708 2314.97 706.448 2295.45 728.918 2274.15 738.379 2252.85 747.84 2219.13 740.744 2199.6 745.474 2180.08 750.205 2170.61 752.57 2157 766.762 2143.4 780.953 2127.42 809.927 2117.95 830.623 2108.49 851.319 2098.43 875.563 2100.21 890.937 2101.98 906.311 2110.85 921.094 2128.6 922.868 2146.35 924.642 2184.81 908.085 2206.7 901.581 2228.59 895.076 2235.69 889.754 2259.95 883.841 2284.21 877.928 2325.62 874.38 2352.25 866.102 2378.87 857.824 2402.54 843.041 2419.7 834.171 2436.85 825.302 2442.77 821.754 2455.2 812.884 2467.62 804.014 2476.5 784.501 2494.24 780.953 2511.99 777.405 2537.44 791.597 2561.69 791.597 2585.95 791.597 2615.53 785.092 2639.79 780.953 2664.05 776.814 2690.67 771.492 2707.24 766.762 2723.81 762.031 2731.5 762.031 2739.19 752.57 2746.88 743.109 2749.84 727.735 2753.39 709.996 2756.94 692.257 2758.71 663.282 2760.49 646.134 2762.26 628.986 2759.9 617.751 2764.04 607.107 2768.18 596.464 2781.2 590.551 2785.34 582.272 2789.48 573.994 2793.03 562.168 2788.89 557.437 2784.75 552.707 2771.73 556.846 2760.49 553.889 2749.25 550.933 2725.58 548.568 2721.44 539.698 2717.3 530.828 2728.54 513.68 2735.64 500.671 2742.74 487.663 2746.29 477.019 2764.04 461.645 2781.79 446.271 2824.98 422.027 2842.14 408.427 2859.29 394.827 2871.72 388.914 2866.99 380.044 2862.25 371.174 2839.18 352.843 2813.74 355.209 2788.3 357.574 2714.34 394.235 2714.34 394.235 2683.57 406.061 2653.4 414.931 2629.14 426.166 2604.88 437.401 2586.54 451.001 2568.79 461.645 2551.04 472.289 2538.62 485.297 2522.64 490.028 2506.67 494.758 2484.19 494.167 2472.95 490.028 2461.7 485.889 2461.11 479.384 2455.2 465.193 2449.28 451.001 2445.73 410.792 2437.45 404.879 2429.16 398.966 2417.33 422.027 2405.5 429.714 2393.66 437.401 2375.32 441.54 2366.45 451.001 2357.57 460.462 2352.84 465.193 2348.7 482.932Z" stroke="#000000" stroke-width="13.75" stroke-miterlimit="8" fill="none" fill-rule="evenodd"/><path d="M3.44709-5.94838 1087.72 622.387 1080.82 634.284-3.44709 5.94838ZM1066.62 583.433 1096.08 635.177 1036.54 635.348C1032.74 635.359 1029.65 632.289 1029.64 628.493 1029.63 624.696 1032.7 621.609 1036.5 621.598L1084.25 621.461 1078.3 631.737 1054.67 590.235C1052.79 586.936 1053.95 582.738 1057.25 580.859 1060.55 578.981 1064.74 580.133 1066.62 583.433Z" transform="matrix(1 0 0 -1 415 1409.16)"/><path d="M699 498 1036.1 1046.41" stroke="#000000" stroke-width="13.75" stroke-miterlimit="8" stroke-dasharray="55 41.25" fill="none" fill-rule="evenodd"/><path d="M482.732 1352C480.366 1337.2 478 1322.4 482.732 1309.38 487.464 1296.36 496.929 1285.7 511.125 1273.86 525.322 1262.02 554.898 1247.23 567.911 1238.35 580.925 1229.47 577.968 1225.91 589.206 1220.59 600.445 1215.26 616.416 1213.48 635.345 1206.38 654.274 1199.28 684.442 1188.03 702.779 1177.97 721.116 1167.9 734.721 1156.06 745.368 1146 756.016 1135.94 766.663 1117.59 766.663 1117.59 772.579 1111.08 778.494 1121.14 780.86 1106.93 783.226 1092.73 780.86 1032.35 780.86 1032.35 781.452 1009.85 781.452 986.175 784.409 971.968 787.366 957.762 789.733 952.434 798.606 947.106 807.479 941.779 829.956 947.698 837.646 940.003 845.336 932.308 841.195 914.549 844.744 900.934 848.293 887.32 852.434 870.745 858.941 858.314 865.448 845.883 871.954 832.86 883.785 826.349 895.615 819.837 911.587 818.062 929.924 819.245 948.261 820.429 974.879 830.492 993.808 833.452 1012.74 836.412 1031.67 839.372 1043.5 837.004 1055.33 834.636 1056.51 822.205 1064.79 819.245 1073.07 816.286 1082.54 814.51 1093.18 819.245 1103.83 823.981 1116.85 839.372 1128.68 847.659 1140.51 855.946 1151.15 867.193 1164.17 868.969 1177.18 870.745 1193.74 862.457 1206.76 858.314 1219.77 854.17 1231.6 846.475 1242.25 844.107 1252.9 841.739 1260.59 846.475 1270.64 844.107 1280.7 841.739 1291.34 835.228 1302.58 829.9 1313.82 824.573 1328.02 818.653 1338.07 812.142 1348.13 805.63 1353.45 794.975 1362.92 790.832 1372.38 786.688 1381.85 786.688 1394.86 787.28 1407.87 787.872 1424.44 791.128 1441 794.383" stroke="#000000" stroke-width="13.75" stroke-miterlimit="8" fill="none" fill-rule="evenodd"/><path d="M480 1352 940.473 1352" stroke="#000000" stroke-width="13.75" stroke-miterlimit="8" stroke-dasharray="41.25 13.75" fill="none" fill-rule="evenodd"/><path d="M640.182 1280.29C667.713 1294.81 677.973 1329.45 663.099 1357.65" stroke="#000000" stroke-width="13.75" stroke-miterlimit="8" fill="none" fill-rule="evenodd"/><path d="M637 1517 694.75 1517 694.75 1414 810.25 1414 810.25 1517 868 1517 752.5 1620Z" stroke="#000000" stroke-width="13.75" stroke-miterlimit="8" fill="none" fill-rule="evenodd"/><path d="M1909 1677.12 3073.45 1677.13 3073.45 1690.88 1909 1690.88ZM3035.67 1654 3087.1 1684 3035.67 1714C3032.39 1715.91 3028.18 1714.81 3026.26 1711.53 3024.35 1708.25 3025.46 1704.04 3028.74 1702.12L3069.99 1678.06 3069.99 1689.94 3028.74 1665.88C3025.46 1663.96 3024.35 1659.75 3026.26 1656.47 3028.18 1653.19 3032.39 1652.09 3035.67 1654Z"/><path d="M6.875-2.51521e-06 6.87536 972.838-6.87464 972.838-6.875 2.51521e-06ZM30.0013 935.053 0.000359208 986.484-30.0006 935.053C-31.9138 931.774-30.806 927.564-27.5263 925.651-24.2465 923.738-20.0369 924.845-18.1237 928.125L5.93884 969.375-5.93813 969.375 18.1244 928.125C20.0375 924.845 24.2472 923.738 27.527 925.651 30.8067 927.564 31.9145 931.774 30.0013 935.053Z" transform="matrix(1 0 0 -1 2484 2114.45)"/><path d="M2604.51 1462.39C2587.37 1457.66 2570.23 1461.21 2554.87 1462.39 2539.5 1463.57 2525.91 1467.71 2512.32 1469.48 2498.73 1471.25 2488.68 1471.25 2473.32 1473.03 2457.96 1474.8 2439.64 1478.94 2420.14 1480.12 2400.64 1481.3 2374.64 1477.17 2356.32 1480.12 2338 1483.08 2326.18 1488.39 2310.22 1497.85 2294.27 1507.31 2277.13 1524.45 2260.59 1536.86 2244.04 1549.27 2223.36 1555.18 2210.95 1572.32 2198.54 1589.46 2190.27 1616.06 2186.13 1639.7 2181.99 1663.34 2184.95 1688.75 2186.13 1714.16 2187.31 1739.58 2183.18 1772.68 2193.22 1792.18 2203.27 1811.68 2231.63 1818.18 2246.4 1831.19 2261.18 1844.19 2264.13 1861.92 2281.86 1870.19 2299.59 1878.47 2331.5 1873.74 2352.77 1880.83 2374.04 1887.92 2380.54 1908.61 2409.5 1912.75 2438.46 1916.88 2494.59 1909.79 2526.5 1905.66 2558.41 1901.52 2578.51 1896.2 2600.96 1887.92 2623.42 1879.65 2638.78 1870.19 2661.24 1856.01 2683.69 1841.83 2714.42 1816.41 2735.69 1802.82 2756.97 1789.22 2775.88 1785.68 2788.88 1774.45 2801.88 1763.22 2806.01 1748.44 2813.69 1735.44 2821.38 1722.44 2834.38 1715.35 2834.97 1696.43 2835.56 1677.52 2827.88 1641.47 2817.24 1621.97 2806.6 1602.46 2787.1 1595.37 2771.15 1579.41 2755.19 1563.45 2735.69 1536.27 2721.51 1526.22 2707.33 1516.17 2696.69 1525.04 2686.05 1519.13 2675.42 1513.22 2668.92 1499.62 2657.69 1490.76 2646.46 1481.89 2621.64 1467.12 2604.51 1462.39Z" stroke="#000000" stroke-width="13.75" stroke-miterlimit="8" fill="none" fill-rule="evenodd"/><path d="M0 0 795.044 532.258" stroke="#000000" stroke-width="13.75" stroke-miterlimit="8" fill="none" fill-rule="evenodd" transform="matrix(1 0 0 -1 2100 1941.26)"/><path d="M2576.27 1625.14C2598.22 1636.72 2606.61 1663.93 2595.01 1685.93" stroke="#000000" stroke-width="13.75" stroke-miterlimit="8" fill="none" fill-rule="evenodd"/><path d="M1849 1170 1906.75 1170 1906.75 1067 2022.25 1067 2022.25 1170 2080 1170 1964.5 1273Z" stroke="#000000" stroke-width="13.75" stroke-miterlimit="8" fill="none" fill-rule="evenodd"/><path d="M366 2309.12 1310 2309.12 1310 2322.88 366 2322.87ZM1272.22 2286 1323.65 2316 1272.22 2346C1268.94 2347.91 1264.73 2346.81 1262.82 2343.53 1260.9 2340.25 1262.01 2336.04 1265.29 2334.12L1306.54 2310.06 1306.54 2321.94 1265.29 2297.88C1262.01 2295.96 1260.9 2291.75 1262.82 2288.47 1264.73 2285.19 1268.94 2284.09 1272.22 2286Z"/><path d="M6.875-5.0404e-06 6.87535 478.637-6.87465 478.637-6.875 5.0404e-06ZM30.0013 440.852 0.000357974 492.282-30.0007 440.852C-31.9138 437.572-30.806 433.362-27.5263 431.449-24.2466 429.536-20.0369 430.644-18.1237 433.923L5.93883 475.173-5.93813 475.173 18.1243 433.923C20.0375 430.644 24.2472 429.536 27.5269 431.449 30.8067 433.362 31.9145 437.572 30.0013 440.852Z" transform="matrix(1 0 0 -1 795 2475.25)"/><path d="M462 2307C470.715 2294.38 479.429 2281.76 489.519 2276.71 499.61 2271.67 514.287 2280.38 522.543 2276.71 530.799 2273.04 529.881 2260.65 539.055 2254.69 548.228 2248.72 567.95 2243.21 577.582 2240.92 587.214 2238.63 590.424 2246.43 596.845 2240.92 603.267 2235.41 606.936 2212.47 616.109 2207.88 625.282 2203.29 641.794 2214.76 651.884 2213.39 661.975 2212.01 668.855 2205.13 676.652 2199.62 684.449 2194.11 691.329 2186.31 698.668 2180.35 706.006 2174.38 711.051 2165.66 720.683 2163.83 730.315 2161.99 744.533 2171.63 756.458 2169.33 768.384 2167.04 779.391 2153.27 792.234 2150.06 805.076 2146.85 820.671 2150.52 833.513 2150.06 846.355 2149.6 855.07 2145.93 869.288 2147.31 883.507 2148.68 907.357 2157.86 918.823 2158.32 930.29 2158.78 932.583 2146.39 938.087 2150.06 943.591 2153.73 944.05 2175.3 951.847 2180.35 959.644 2185.39 975.697 2176.22 984.87 2180.35 994.043 2184.48 999.547 2196.41 1006.89 2205.13 1014.22 2213.85 1020.65 2226.24 1028.9 2232.66 1037.16 2239.08 1046.79 2238.17 1056.42 2243.67 1066.05 2249.18 1072.47 2260.65 1086.69 2265.7 1100.91 2270.75 1133.02 2267.54 1141.73 2273.96 1150.45 2280.38 1138.98 2304.25 1138.98 2304.25 1138.98 2308.84 1140.36 2305.16 1141.73 2301.49" stroke="#000000" stroke-width="13.75" stroke-miterlimit="8" fill="none" fill-rule="evenodd"/><text font-family="Calibri,Calibri_MSFontService,sans-serif" font-weight="400" font-size="128" transform="matrix(1 0 0 1 1015.9 170)">f (x, y)<tspan font-size="128" x="357.271" y="363">x</tspan><tspan font-size="128" x="-249.534" y="1156">Î˜</tspan></text><path d="M131.133 1246.98C127.008 1246.98 123.904 1247.07 121.821 1247.23L121.821 1285.05 129.071 1285.05C133.779 1285.05 137.664 1284.43 140.727 1283.2 143.789 1281.97 146.133 1279.93 147.758 1277.08 149.383 1274.22 150.196 1270.44 150.196 1265.73 150.196 1262.15 149.716 1259.16 148.758 1256.76 147.8 1254.37 146.477 1252.44 144.789 1250.98 143.102 1249.53 141.091 1248.49 138.758 1247.89 136.425 1247.29 133.883 1246.98 131.133 1246.98ZM102.821 1241.48 133.821 1241.48C143.571 1241.48 150.831 1243.35 155.602 1247.08 160.373 1250.81 162.758 1256.48 162.758 1264.11 162.758 1268.44 162.008 1272.34 160.508 1275.8 159.008 1279.25 156.883 1282.09 154.133 1284.3 151.383 1286.5 148.133 1288.09 144.383 1289.05 140.633 1290 136.696 1290.48 132.571 1290.48 127.946 1290.48 124.362 1290.4 121.821 1290.23L121.821 1310.98C121.821 1313.44 121.956 1315.4 122.227 1316.86 122.498 1318.32 122.914 1319.47 123.477 1320.33 124.039 1321.18 124.8 1321.85 125.758 1322.33 126.716 1322.81 128.216 1323.28 130.258 1323.73L130.258 1326.8 102.821 1326.8 102.821 1323.73C105.404 1323.07 107.133 1322.33 108.008 1321.51 108.883 1320.7 109.456 1319.55 109.727 1318.05 109.998 1316.55 110.133 1314.25 110.133 1311.17L110.133 1257.11C110.133 1254.23 110.029 1252.14 109.821 1250.83 109.612 1249.51 109.268 1248.49 108.789 1247.76 108.31 1247.04 107.675 1246.45 106.883 1246.01 106.091 1245.58 104.737 1245.09 102.821 1244.55Z" fill-rule="evenodd"/><text fill="#000000" fill-opacity="0" font-family="Arial,Arial_MSFontService,sans-serif" font-size="85.3125" x="102.821" y="1316.13">P</text><path d="M185.229 1323.06C184.533 1326.18 184.041 1329.07 183.753 1331.74 183.466 1334.4 183.322 1336.91 183.322 1339.28 183.322 1342.88 183.867 1345.47 184.956 1347.04 186.046 1348.62 187.787 1349.4 190.179 1349.4 192.056 1349.4 193.864 1348.83 195.605 1347.68 197.346 1346.53 199.003 1344.84 200.578 1342.61 202.152 1340.39 203.605 1337.64 204.937 1334.37 206.269 1331.1 207.465 1327.33 208.524 1323.06ZM205.028 1291.5C201.092 1291.5 197.581 1293.69 194.493 1298.07 191.405 1302.44 188.741 1308.93 186.5 1317.52L209.796 1317.52C210.401 1314.5 210.871 1311.65 211.204 1308.99 211.537 1306.32 211.703 1303.81 211.703 1301.45 211.703 1298.06 211.181 1295.55 210.136 1293.93 209.092 1292.31 207.389 1291.5 205.028 1291.5ZM205.391 1287.01C215.169 1287.01 220.059 1293.21 220.059 1305.63 220.059 1309.32 219.688 1313.23 218.946 1317.34 218.204 1321.46 217.092 1325.62 215.608 1329.83 214.307 1333.52 212.755 1336.85 210.954 1339.82 209.153 1342.79 207.154 1345.31 204.96 1347.38 202.765 1349.46 200.388 1351.04 197.83 1352.15 195.272 1353.25 192.57 1353.81 189.725 1353.81 179.825 1353.81 174.875 1347.65 174.875 1335.33 174.875 1331.63 175.216 1327.73 175.897 1323.63 176.578 1319.53 177.645 1315.39 179.099 1311.21 180.4 1307.52 181.982 1304.18 183.844 1301.2 185.706 1298.22 187.757 1295.67 189.997 1293.57 192.237 1291.47 194.659 1289.85 197.263 1288.71 199.866 1287.58 202.576 1287.01 205.391 1287.01Z" fill-rule="evenodd"/><text fill="#000000" fill-opacity="0" font-family="Arial,Arial_MSFontService,sans-serif" font-size="66.7983" x="174.875" y="1345.46">ğœƒ</text><path d="M357.11 1230.94C369.277 1234.15 378.621 1241.07 385.141 1251.72 391.662 1262.36 394.923 1275.21 394.923 1290.25 394.923 1305.33 391.673 1318.18 385.173 1328.78 378.673 1339.39 369.318 1346.29 357.11 1349.5L355.61 1344.69C365.235 1341.48 372.391 1335.15 377.079 1325.69 381.766 1316.23 384.11 1304.21 384.11 1289.62 384.11 1275.54 381.777 1263.84 377.11 1254.53 372.443 1245.22 365.214 1238.96 355.423 1235.75ZM284.731 1230.94 286.418 1235.75C276.668 1238.96 269.45 1245.22 264.762 1254.53 260.075 1263.84 257.731 1275.54 257.731 1289.62 257.731 1304.21 260.075 1316.23 264.762 1325.69 269.45 1335.15 276.606 1341.48 286.231 1344.69L284.731 1349.5C272.523 1346.29 263.168 1339.39 256.668 1328.78 250.168 1318.18 246.918 1305.33 246.918 1290.25 246.918 1275.21 250.179 1262.36 256.7 1251.72 263.221 1241.07 272.564 1234.15 284.731 1230.94Z" fill-rule="evenodd"/><path d="M308.552 1265.98C311.177 1265.98 313.25 1266.85 314.771 1268.58 316.291 1270.31 317.052 1272.57 317.052 1275.36 317.052 1277.44 316.656 1279.59 315.864 1281.8L316.677 1282.11C320.76 1276.57 324.687 1272.5 328.458 1269.92 332.229 1267.34 336.052 1266.05 339.927 1266.05 342.968 1266.05 345.51 1266.28 347.552 1266.73L344.552 1280.73 338.114 1280.73C337.864 1278.98 337.51 1277.63 337.052 1276.67 336.593 1275.71 336.052 1275.05 335.427 1274.67 334.802 1274.3 334.01 1274.11 333.052 1274.11 331.552 1274.11 329.916 1274.75 328.146 1276.05 326.375 1277.34 324.385 1279.36 322.177 1282.11 319.968 1284.86 318.208 1287.5 316.896 1290.05 315.583 1292.59 314.489 1295.82 313.614 1299.73L307.677 1326.8 296.864 1326.8 305.927 1287.17C306.51 1284.67 306.885 1282.73 307.052 1281.36 307.218 1279.98 307.302 1278.84 307.302 1277.92 307.302 1276.25 307.031 1275.05 306.489 1274.3 305.948 1273.55 305.093 1273.17 303.927 1273.17 302.635 1273.17 301.271 1273.7 299.833 1274.76 298.396 1275.83 296.427 1277.75 293.927 1280.55L290.364 1277.05C294.198 1273.05 297.406 1270.2 299.989 1268.51 302.573 1266.83 305.427 1265.98 308.552 1265.98Z" fill-rule="evenodd"/><text fill="#000000" fill-opacity="0" font-family="Arial,Arial_MSFontService,sans-serif" font-size="60.8125" x="290.364" y="1319.19">ğ‘Ÿ</text><text font-family="Calibri,Calibri_MSFontService,sans-serif" font-weight="400" font-size="128" transform="matrix(1 0 0 1 1057.94 1212)">0<tspan font-size="128" x="-92.4974" y="399">Fourier transform</tspan></text><path d="M659.832 1774.44C655.707 1774.44 652.602 1774.52 650.519 1774.69L650.519 1812.5 657.769 1812.5C662.477 1812.5 666.363 1811.88 669.425 1810.66 672.488 1809.43 674.832 1807.38 676.457 1804.53 678.082 1801.68 678.894 1797.9 678.894 1793.19 678.894 1789.6 678.415 1786.61 677.457 1784.22 676.498 1781.82 675.175 1779.9 673.488 1778.44 671.8 1776.98 669.79 1775.95 667.457 1775.34 665.123 1774.74 662.582 1774.44 659.832 1774.44ZM631.519 1768.94 662.519 1768.94C672.269 1768.94 679.529 1770.8 684.3 1774.53 689.071 1778.26 691.457 1783.94 691.457 1791.56 691.457 1795.9 690.707 1799.79 689.207 1803.25 687.707 1806.71 685.582 1809.54 682.832 1811.75 680.082 1813.96 676.832 1815.54 673.082 1816.5 669.332 1817.46 665.394 1817.94 661.269 1817.94 656.644 1817.94 653.061 1817.85 650.519 1817.69L650.519 1838.44C650.519 1840.9 650.654 1842.85 650.925 1844.31 651.196 1845.77 651.613 1846.93 652.175 1847.78 652.738 1848.63 653.498 1849.3 654.457 1849.78 655.415 1850.26 656.915 1850.73 658.957 1851.19L658.957 1854.25 631.519 1854.25 631.519 1851.19C634.102 1850.52 635.832 1849.78 636.707 1848.97 637.582 1848.16 638.154 1847 638.425 1845.5 638.696 1844 638.832 1841.71 638.832 1838.62L638.832 1784.56C638.832 1781.69 638.727 1779.59 638.519 1778.28 638.311 1776.97 637.967 1775.95 637.488 1775.22 637.009 1774.49 636.373 1773.91 635.582 1773.47 634.79 1773.03 633.436 1772.54 631.519 1772Z" fill-rule="evenodd"/><text fill="#000000" fill-opacity="0" font-family="Arial,Arial_MSFontService,sans-serif" font-size="85.3125" x="631.519" y="1843.59">P</text><path d="M713.927 1850.52C713.231 1853.64 712.739 1856.53 712.452 1859.19 712.164 1861.86 712.02 1864.37 712.02 1866.73 712.02 1870.33 712.565 1872.92 713.655 1874.49 714.745 1876.07 716.486 1876.86 718.877 1876.86 720.754 1876.86 722.563 1876.28 724.304 1875.13 726.044 1873.98 727.702 1872.29 729.276 1870.07 730.85 1867.84 732.303 1865.09 733.635 1861.83 734.967 1858.56 736.163 1854.79 737.223 1850.52ZM733.726 1818.96C729.791 1818.96 726.279 1821.15 723.191 1825.52 720.103 1829.89 717.439 1836.38 715.199 1844.98L738.494 1844.98C739.1 1841.95 739.569 1839.1 739.902 1836.44 740.235 1833.78 740.402 1831.26 740.402 1828.9 740.402 1825.51 739.879 1823.01 738.835 1821.39 737.79 1819.77 736.088 1818.96 733.726 1818.96ZM734.09 1814.46C743.868 1814.46 748.757 1820.67 748.757 1833.08 748.757 1836.77 748.386 1840.68 747.644 1844.8 746.903 1848.91 745.79 1853.08 744.307 1857.28 743.005 1860.98 741.454 1864.31 739.652 1867.27 737.851 1870.24 735.853 1872.76 733.658 1874.84 731.463 1876.91 729.087 1878.5 726.529 1879.6 723.971 1880.71 721.269 1881.26 718.423 1881.26 708.524 1881.26 703.574 1875.1 703.574 1862.78 703.574 1859.09 703.914 1855.19 704.596 1851.09 705.277 1846.98 706.344 1842.84 707.797 1838.67 709.099 1834.97 710.681 1831.63 712.542 1828.65 714.404 1825.67 716.455 1823.13 718.695 1821.02 720.936 1818.92 723.358 1817.3 725.961 1816.17 728.565 1815.03 731.274 1814.46 734.09 1814.46Z" fill-rule="evenodd"/><text fill="#000000" fill-opacity="0" font-family="Arial,Arial_MSFontService,sans-serif" font-size="66.7983" x="703.574" y="1872.91">ğœƒ</text><path d="M889.865 1758.39C902.031 1761.6 911.375 1768.53 917.896 1779.17 924.417 1789.82 927.677 1802.66 927.677 1817.7 927.677 1832.79 924.427 1845.63 917.927 1856.23 911.427 1866.84 902.073 1873.75 889.865 1876.95L888.365 1872.14C897.99 1868.93 905.146 1862.6 909.834 1853.14 914.521 1843.68 916.865 1831.66 916.865 1817.08 916.865 1803 914.531 1791.3 909.865 1781.98 905.198 1772.67 897.969 1766.41 888.177 1763.2ZM813.429 1758.39 815.117 1763.2C805.367 1766.41 798.148 1772.67 793.461 1781.98 788.773 1791.3 786.429 1803 786.429 1817.08 786.429 1831.66 788.773 1843.68 793.461 1853.14 798.148 1862.6 805.304 1868.93 814.929 1872.14L813.429 1876.95C801.221 1873.75 791.867 1866.84 785.367 1856.23 778.867 1845.63 775.617 1832.79 775.617 1817.7 775.617 1802.66 778.877 1789.82 785.398 1779.17 791.919 1768.53 801.263 1761.6 813.429 1758.39Z" fill-rule="evenodd"/><path d="M853.188 1798.19C842.521 1798.19 837.188 1807.96 837.188 1827.5L837.188 1837.75C837.188 1841.37 838.604 1844.34 841.438 1846.66 844.271 1848.97 847.646 1850.12 851.563 1850.12 862.063 1850.12 867.313 1841.85 867.313 1825.31 867.313 1807.23 862.604 1798.19 853.188 1798.19ZM854.375 1793.19C862.209 1793.19 868.282 1795.76 872.594 1800.91 876.907 1806.05 879.063 1813.25 879.063 1822.5 879.063 1833.12 876.709 1841.24 872 1846.84 867.292 1852.45 860.896 1855.25 852.813 1855.25 846.688 1855.25 841.479 1853.46 837.188 1849.87L837.188 1881.25 826.438 1881.25 826.438 1826.06C826.438 1804.15 835.75 1793.19 854.375 1793.19Z" fill-rule="evenodd"/><text fill="#000000" fill-opacity="0" font-family="Arial,Arial_MSFontService,sans-serif" font-size="88.0625" x="826.438" y="1870.24">Ï</text><text font-family="Calibri,Calibri_MSFontService,sans-serif" font-weight="400" font-size="128" transform="matrix(1 0 0 1 2103.42 162)">f (x, y)<tspan font-size="128" x="231.367" y="1023">v</tspan><tspan font-size="128" x="940.648" y="1661">u</tspan><tspan font-size="128" x="566.22" y="1510">Î˜</tspan><tspan font-size="128" x="675.543" y="895">2D</tspan><tspan font-size="128" x="675.543" y="1049">Fourier transform</tspan></text><path d="M0 0 132.089 132.089" stroke="#000000" stroke-width="13.75" stroke-miterlimit="8" fill="none" fill-rule="evenodd" transform="matrix(1 0 0 -1 1578 2115.09)"/><path d="M0 0 132.089 132.089" stroke="#000000" stroke-width="13.75" stroke-miterlimit="8" fill="none" fill-rule="evenodd" transform="matrix(1 0 0 -1 1633 2170.09)"/><text font-family="Calibri,Calibri_MSFontService,sans-serif" font-weight="400" font-size="128" transform="matrix(1 0 0 1 1743.78 2269)">same</text></g></svg>